<?xml version="1.0" encoding="UTF-8"?>
<svg version="1.1" xmlns="http://www.w3.org/2000/svg" width="177" height="189">
<path d="M0 0 C2.12361075 1.69212012 2.95994306 3.0653956 3.9609375 5.5625 C4.6209375 5.5625 5.2809375 5.5625 5.9609375 5.5625 C14.72601676 17.15441218 19.44662715 29.90736377 17.9609375 44.5625 C16.25745596 54.79746761 11.31735948 63.79454735 5.9609375 72.5625 C13.31359348 72.29017941 17.94916887 69.66834536 23.9609375 65.5625 C25.0128125 64.881875 26.0646875 64.20125 27.1484375 63.5 C31.11188246 60.14888502 32.88387013 54.96286113 34.95703125 50.328125 C36.9609375 47.5625 36.9609375 47.5625 40.49609375 46.546875 C43.9609375 46.5625 43.9609375 46.5625 46.9609375 48.5625 C47.78216572 54.42841586 46.24319924 58.78462638 42.9609375 63.5625 C37.11620418 70.78750422 31.13791296 76.95916567 22.9609375 81.5625 C24.12484971 85.05423663 24.97907012 85.53680576 27.8984375 87.625 C50.60372899 104.81614927 61.97775412 129.5856719 66.3359375 157.1875 C68.11573962 172.25289575 68.11573962 172.25289575 65.9609375 176.5625 C64.35760959 176.64371924 62.75309724 176.70179134 61.1484375 176.75 C60.25511719 176.78480469 59.36179688 176.81960937 58.44140625 176.85546875 C55.9609375 176.5625 55.9609375 176.5625 54.1953125 175.55859375 C52.25387475 172.41911688 52.28208009 169.03433117 52.0234375 165.4375 C49.92096631 143.06973036 42.91446914 122.65225044 27.9609375 105.5625 C27.9609375 104.9025 27.9609375 104.2425 27.9609375 103.5625 C27.09275391 103.1603125 27.09275391 103.1603125 26.20703125 102.75 C23.92071356 101.54123378 22.04814072 100.16622533 20.0234375 98.5625 C17.112477 96.33167046 14.49990999 94.6684289 10.9609375 93.5625 C11.47538085 97.67804683 12.98344163 100.80569205 14.92578125 104.40234375 C20.24507342 115.50260251 20.01277982 128.46538151 16.14453125 139.99609375 C11.35827547 151.55119662 3.83658647 161.01942944 -7.6015625 166.4375 C-19.11602934 171.14796371 -32.54223597 172.99350706 -44.5546875 168.66015625 C-54.5196067 164.25741679 -62.96093734 158.87013334 -71.0390625 151.5625 C-71.89371094 150.79035156 -72.74835938 150.01820313 -73.62890625 149.22265625 C-87.3124354 136.21381575 -96.31729266 119.76148225 -101.0390625 101.5625 C-101.37744141 100.37333984 -101.37744141 100.37333984 -101.72265625 99.16015625 C-107.32197653 76.56979511 -100.24887886 51.64683874 -89.08203125 31.94140625 C-86.38975551 27.48859838 -83.42470035 23.50328862 -80.0390625 19.5625 C-79.53246094 18.9128125 -79.02585937 18.263125 -78.50390625 17.59375 C-71.40903363 8.8079618 -62.03216248 2.37153779 -52.1640625 -2.9375 C-51.25527344 -3.42669922 -51.25527344 -3.42669922 -50.328125 -3.92578125 C-33.59122047 -12.55115968 -15.62131717 -9.30201411 0 0 Z M-63.0390625 20.5625 C-65.39299851 23.23118566 -67.54477803 26.01777345 -69.6640625 28.875 C-70.22673828 29.62773193 -70.78941406 30.38046387 -71.36914062 31.15600586 C-72.94202329 33.28026721 -74.49558095 35.41681462 -76.0390625 37.5625 C-76.69648437 38.47515625 -77.35390625 39.3878125 -78.03125 40.328125 C-88.31130454 55.98789721 -91.51605228 78.60195214 -88.01147461 96.71484375 C-84.78777605 111.45555945 -77.72913418 124.07924779 -68.0390625 135.5625 C-67.13800781 136.63371094 -67.13800781 136.63371094 -66.21875 137.7265625 C-58.15610536 146.48727161 -45.12678943 156.03461132 -33.0390625 157.5625 C-21.93505931 157.90530815 -12.39068389 154.86759552 -4.1015625 147.3125 C3.24857303 139.2614958 5.44903664 130.03184458 5.234375 119.42578125 C4.58849699 110.30044764 0.27873944 103.04813728 -6.0390625 96.5625 C-11.02608801 92.3500046 -15.34953518 89.00784995 -22.0390625 88.5625 C-24.38926748 90.91270498 -24.35821052 91.48159622 -24.4140625 94.6875 C-24.31188062 99.54506959 -23.0060348 103.67269016 -20.0390625 107.5625 C-18.5540625 108.0575 -18.5540625 108.0575 -17.0390625 108.5625 C-17.0390625 111.2025 -17.0390625 113.8425 -17.0390625 116.5625 C-19.2265625 116.875 -19.2265625 116.875 -22.0390625 116.5625 C-28.88311895 111.08725484 -32.3837758 103.98941411 -34.0390625 95.5625 C-35.0290625 95.5625 -36.0190625 95.5625 -37.0390625 95.5625 C-39.12293139 100.84163453 -39.61816254 105.95788469 -40.0390625 111.5625 C-42.6790625 111.5625 -45.3190625 111.5625 -48.0390625 111.5625 C-49.22721014 104.97368125 -48.7807118 100.41435185 -46.73046875 94.04296875 C-45.86005957 91.34948565 -45.86005957 91.34948565 -46.0390625 87.5625 C-48.60800088 86.27803081 -50.80482587 86.23272856 -53.6640625 86 C-55.16839844 85.87431641 -55.16839844 85.87431641 -56.703125 85.74609375 C-57.47398438 85.68550781 -58.24484375 85.62492187 -59.0390625 85.5625 C-59.7265625 82.75 -59.7265625 82.75 -60.0390625 79.5625 C-58.9140625 77.90625 -58.9140625 77.90625 -57.0390625 76.5625 C-54.33984375 76.05078125 -54.33984375 76.05078125 -51.3515625 75.875 C-50.35769531 75.80925781 -49.36382812 75.74351563 -48.33984375 75.67578125 C-47.20095703 75.61970703 -47.20095703 75.61970703 -46.0390625 75.5625 C-44.90239041 72.15248373 -45.16457345 71.63573343 -46.4140625 68.4375 C-48.51589663 62.52729668 -49.85714243 56.69163311 -48.0390625 50.5625 C-41.1640625 51.4375 -41.1640625 51.4375 -40.0390625 52.5625 C-39.88136901 53.97590094 -39.76271694 55.39375522 -39.6640625 56.8125 C-39.28120918 60.74773005 -38.437231 63.33018593 -36.0390625 66.5625 C-33.35821151 64.23000818 -32.33290395 62.14318094 -31.1640625 58.8125 C-29.3176992 54.03573435 -27.46665563 50.39813993 -24.0390625 46.5625 C-20.7265625 45.625 -20.7265625 45.625 -18.0390625 45.5625 C-15.8871188 48.79041555 -15.83819807 49.84650809 -16.0390625 53.5625 C-16.65265625 53.81773438 -17.26625 54.07296875 -17.8984375 54.3359375 C-21.5087403 56.40461465 -22.75186426 59.71431358 -24.0390625 63.5625 C-24.33967283 66.33375144 -24.23896114 68.76391899 -24.0390625 71.5625 C-22.30243422 72.77603073 -22.30243422 72.77603073 -20.0390625 73.5625 C-11.45727752 71.3191913 -3.08094183 64.25787795 1.6640625 56.93359375 C6.88256405 46.87148299 7.02823554 37.40123934 4.05859375 26.55859375 C0.91418443 17.975811 -4.74325783 11.44155682 -13.0390625 7.5625 C-31.86411162 1.18236093 -49.08408349 6.96447342 -63.0390625 20.5625 Z " fill="#D87E7B" transform="translate(107.0390625,10.4375)"/>
<path d="M0 0 C2 3 2 3 1.9375 5.375 C0.71060946 8.81029351 -1.40843554 10.47164443 -4 13 C-6.78204782 17.63674637 -6.18294093 22.76585663 -6 28 C-4.68 28.66 -3.36 29.32 -2 30 C-4.375 30.125 -4.375 30.125 -7 30 C-9 28 -9 28 -9.265625 25.828125 C-9.23528962 20.82278672 -8.97526844 16.69126254 -7 12 C-8.32 12 -9.64 12 -11 12 C-13.26877535 14.41880929 -13.26877535 14.41880929 -15 17 C-14.86431904 9.53754722 -12.09036166 5.37250642 -7 0 C-4.27584084 -1.36207958 -2.87220643 -0.86166193 0 0 Z " fill="#CB7A77" transform="translate(90,56)"/>
<path d="M0 0 C3.3125 0.8125 3.3125 0.8125 4.3125 1.8125 C4.93482333 7.91126859 3.29282443 11.69006738 0.3125 16.8125 C-0.3475 16.8125 -1.0075 16.8125 -1.6875 16.8125 C-1.18560421 14.55396894 -0.56787188 12.52090646 0.3125 10.375 C1.29617644 7.85432913 1.85629989 5.4736673 2.3125 2.8125 C0.0025 3.1425 -2.3075 3.4725 -4.6875 3.8125 C-4.97625 4.616875 -5.265 5.42125 -5.5625 6.25 C-6.6875 8.8125 -6.6875 8.8125 -8.6875 9.8125 C-8.38005622 6.43061839 -7.96087672 4.22256509 -6.0625 1.375 C-3.6875 -0.1875 -3.6875 -0.1875 0 0 Z " fill="#C88581" transform="translate(149.6875,57.1875)"/>
<path d="M0 0 C0.99 0.33 1.98 0.66 3 1 C4.77683195 5.12370554 5.36401809 9.04549501 5.6875 13.5 C5.81705078 15.12421875 5.81705078 15.12421875 5.94921875 16.78125 C5.99987833 19.99228815 5.62947657 22.85735007 5 26 C4.34 26 3.68 26 3 26 C2.95101562 24.7934375 2.90203125 23.586875 2.8515625 22.34375 C2.77646468 20.72914694 2.70091997 19.11456461 2.625 17.5 C2.5940625 16.70851562 2.563125 15.91703125 2.53125 15.1015625 C2.27143777 9.81871388 1.43666294 5.09256131 0 0 Z " fill="#BB7874" transform="translate(120,116)"/>
<path d="M0 0 C0.66 0.33 1.32 0.66 2 1 C2.38363893 15.17332706 2.38363893 15.17332706 0 21 C-0.66 21.33 -1.32 21.66 -2 22 C-1.46589137 14.64748331 -0.86859084 7.32097997 0 0 Z " fill="#C58481" transform="translate(123,41)"/>
<path d="M0 0 C0.33 0 0.66 0 1 0 C1.33 1.65 1.66 3.3 2 5 C4.64 5.33 7.28 5.66 10 6 C10.33 4.35 10.66 2.7 11 1 C11.33 1 11.66 1 12 1 C12 3.64 12 6.28 12 9 C10.37509046 9.02698189 8.75005367 9.04638757 7.125 9.0625 C5.76761719 9.07990234 5.76761719 9.07990234 4.3828125 9.09765625 C2 9 2 9 0 8 C0 5.36 0 2.72 0 0 Z " fill="#BE7472" transform="translate(161,178)"/>
<path d="M0 0 C5.28 0 10.56 0 16 0 C16 0.66 16 1.32 16 2 C8.74 2.66 1.48 3.32 -6 4 C-3 2 -3 2 0 2 C0 1.34 0 0.68 0 0 Z " fill="#C1716E" transform="translate(69,2)"/>
<path d="M0 0 C0.33 0 0.66 0 1 0 C1.08132187 2.56314499 1.14064175 5.12368418 1.1875 7.6875 C1.22520508 8.7693457 1.22520508 8.7693457 1.26367188 9.87304688 C1.32721418 14.5116353 0.74717581 17.2638409 -2 21 C-2.68096422 22.32608822 -3.35330586 23.65686601 -4 25 C-4 24.34 -4 23.68 -4 23 C-4.66 22.67 -5.32 22.34 -6 22 C-5.72285156 21.45730469 -5.44570312 20.91460937 -5.16015625 20.35546875 C-4.79792969 19.64003906 -4.43570313 18.92460937 -4.0625 18.1875 C-3.52302734 17.12595703 -3.52302734 17.12595703 -2.97265625 16.04296875 C-1.25607262 12.43745373 -0.76228089 9.25626797 -0.4375 5.3125 C-0.35371094 4.31863281 -0.26992187 3.32476562 -0.18359375 2.30078125 C-0.12300781 1.54152344 -0.06242187 0.78226563 0 0 Z " fill="#CC8984" transform="translate(112,130)"/>
<path d="M0 0 C4.8465655 1.27836945 7.44959294 2.99199252 10.875 6.625 C11.65617188 7.44226563 12.43734375 8.25953125 13.2421875 9.1015625 C14.11230469 10.04128906 14.11230469 10.04128906 15 11 C14.67 11.99 14.34 12.98 14 14 C12.62437146 12.71034824 11.29233607 11.37310707 10 10 C10 9.34 10 8.68 10 8 C9.46375 7.7525 8.9275 7.505 8.375 7.25 C5.4176018 5.69347463 2.70275949 3.96564327 0 2 C0 1.34 0 0.68 0 0 Z " fill="#BF7471" transform="translate(133,99)"/>
<path d="M0 0 C2.31 0.33 4.62 0.66 7 1 C7.625 2.875 7.625 2.875 8 5 C7.34 5.66 6.68 6.32 6 7 C5.731875 6.360625 5.46375 5.72125 5.1875 5.0625 C4.11332248 2.66868314 4.11332248 2.66868314 1 2 C1 4.97 1 7.94 1 11 C0.34 11 -0.32 11 -1 11 C-2.0257259 6.58937864 -2.03684712 4.07369424 0 0 Z " fill="#B97874" transform="translate(59,60)"/>
<path d="M0 0 C0.66 0 1.32 0 2 0 C1.02541328 5.80165739 -0.01253155 10.83982722 -3 16 C-4.49828872 12.11764181 -3.43110582 9.56550712 -2.0625 5.75 C-1.68222656 4.67234375 -1.30195312 3.5946875 -0.91015625 2.484375 C-0.45962891 1.25460938 -0.45962891 1.25460938 0 0 Z " fill="#C67A77" transform="translate(62,97)"/>
<path d="M0 0 C1 2 1 2 1.3125 3.75 C2.27542309 6.90138466 4.16789022 9.28138549 6 12 C6 12.66 6 13.32 6 14 C2.02553158 12.72249229 0.70376535 10.29042104 -1.265625 6.8515625 C-2 5 -2 5 -2 1 C-1.34 0.67 -0.68 0.34 0 0 Z " fill="#C47C78" transform="translate(76,109)"/>
<path d="M0 0 C0.33 0.66 0.66 1.32 1 2 C1.66 2 2.32 2 3 2 C3 2.99 3 3.98 3 5 C4.15628906 4.98259766 4.15628906 4.98259766 5.3359375 4.96484375 C6.33882812 4.95582031 7.34171875 4.94679688 8.375 4.9375 C9.37273438 4.92589844 10.37046875 4.91429688 11.3984375 4.90234375 C14 5 14 5 16 6 C15.67 6.99 15.34 7.98 15 9 C14.34 8.67 13.68 8.34 13 8 C10.17786782 7.8040186 7.35807503 7.68208444 4.53125 7.57421875 C2 7 2 7 0.65625 5.14453125 C0 3 0 3 0 0 Z " fill="#D68F8A" transform="translate(46,90)"/>
<path d="M0 0 C3 -0.3125 3 -0.3125 6 0 C6.66 0.66 7.32 1.32 8 2 C5.69 2.33 3.38 2.66 1 3 C0.71125 3.804375 0.4225 4.60875 0.125 5.4375 C-1 8 -1 8 -3 9 C-2.5020163 5.26512223 -2.12508244 3.18762365 0 0 Z " fill="#B6716E" transform="translate(144,58)"/>
<path d="M0 0 C3.35620271 1.38877354 5.07298728 2.91677965 7 6 C7 6.66 7 7.32 7 8 C7.66 8 8.32 8 9 8 C9 8.66 9 9.32 9 10 C8.01 10 7.02 10 6 10 C4.39453125 8.3203125 4.39453125 8.3203125 2.8125 6.125 C2.01779297 5.04605469 2.01779297 5.04605469 1.20703125 3.9453125 C0 2 0 2 0 0 Z " fill="#C37B78" transform="translate(101,106)"/>
<path d="M0 0 C-0.99 1.485 -0.99 1.485 -2 3 C-4.8203125 3.29296875 -4.8203125 3.29296875 -8.125 3.1875 C-9.76855469 3.14689453 -9.76855469 3.14689453 -11.4453125 3.10546875 C-12.28835937 3.07066406 -13.13140625 3.03585938 -14 3 C-14 2.67 -14 2.34 -14 2 C-9.126739 0.4087311 -5.19209404 -0.21192221 0 0 Z " fill="#C47874" transform="translate(88,167)"/>
<path d="M0 0 C3.29078593 2.79716804 5.06305458 6.19528578 7 10 C6.67 10.66 6.34 11.32 6 12 C5.34 12 4.68 12 4 12 C4 10.35 4 8.7 4 7 C3.01 6.67 2.02 6.34 1 6 C0.67 4.02 0.34 2.04 0 0 Z " fill="#D38C88" transform="translate(155,120)"/>
<path d="M0 0 C0.99 0.33 1.98 0.66 3 1 C2.67 2.98 2.34 4.96 2 7 C0.35 7.33 -1.3 7.66 -3 8 C-3.33 7.01 -3.66 6.02 -4 5 C-2.35 5 -0.7 5 1 5 C0.67 3.35 0.34 1.7 0 0 Z " fill="#B67A76" transform="translate(88,120)"/>
<path d="M0 0 C0.33 0.66 0.66 1.32 1 2 C-1.64 2.66 -4.28 3.32 -7 4 C-7 5.98 -7 7.96 -7 10 C-7.33 10 -7.66 10 -8 10 C-8.29296875 3.9453125 -8.29296875 3.9453125 -8 2 C-4.77208445 -0.1519437 -3.71599191 -0.20086443 0 0 Z " fill="#C17572" transform="translate(89,97)"/>
<path d="M0 0 C3.64775386 3.88309282 4.58525633 6.71201818 5 12 C4.34 11.67 3.68 11.34 3 11 C3 9.68 3 8.36 3 7 C2.34 7 1.68 7 1 7 C0.67 4.69 0.34 2.38 0 0 Z " fill="#C57976" transform="translate(19,113)"/>
<path d="M0 0 C0.66 0 1.32 0 2 0 C1.29445932 3.66881155 -0.27735506 6.70450534 -2 10 C-2.33 10 -2.66 10 -3 10 C-2.25 2.25 -2.25 2.25 0 0 Z " fill="#C17773" transform="translate(78,63)"/>
<path d="M0 0 C0.66 0 1.32 0 2 0 C2 2.97 2 5.94 2 9 C1.01 8.67 0.02 8.34 -1 8 C-1.125 2.25 -1.125 2.25 0 0 Z " fill="#C0726F" transform="translate(18,70)"/>
<path d="M0 0 C0.33 0 0.66 0 1 0 C1.2493357 1.60115576 1.47378648 3.20620159 1.6875 4.8125 C1.87892578 6.15248047 1.87892578 6.15248047 2.07421875 7.51953125 C2 10 2 10 -1 13 C-0.67 8.71 -0.34 4.42 0 0 Z " fill="#C37572" transform="translate(122,50)"/>
<path d="M0 0 C0.66 0 1.32 0 2 0 C0.68938409 4.23429756 -0.94356259 8.07407404 -3 12 C-3.88336837 9.5332355 -4.1312406 8.36140628 -3.22265625 5.859375 C-2.83980469 5.16328125 -2.45695313 4.4671875 -2.0625 3.75 C-1.68222656 3.04359375 -1.30195313 2.3371875 -0.91015625 1.609375 C-0.60980469 1.07828125 -0.30945313 0.5471875 0 0 Z " fill="#BF7773" transform="translate(17,44)"/>
<path d="M0 0 C2.04795423 1.9626228 2.94976638 3.4277307 3.19921875 6.26953125 C3.18858877 8.51954383 3.12958525 10.75385562 3 13 C1.32889958 10.03821227 0.67317248 7.62928808 0.375 4.25 C0.30023438 3.45078125 0.22546875 2.6515625 0.1484375 1.828125 C0.09945312 1.22484375 0.05046875 0.6215625 0 0 Z " fill="#B66E6B" transform="translate(60,74)"/>
<path d="M0 0 C0.66 0.33 1.32 0.66 2 1 C2 1.99 2 2.98 2 4 C1.01 4 0.02 4 -1 4 C-1.33 4.99 -1.66 5.98 -2 7 C-2.99 6.67 -3.98 6.34 -5 6 C-3.35 4.02 -1.7 2.04 0 0 Z " fill="#CC8783" transform="translate(83,56)"/>
<path d="M0 0 C0.66 0.99 1.32 1.98 2 3 C0.68 3.33 -0.64 3.66 -2 4 C-2 4.66 -2 5.32 -2 6 C-3.98 6.66 -5.96 7.32 -8 8 C-5.33333333 5.33333333 -2.66666667 2.66666667 0 0 Z " fill="#CF8C88" transform="translate(40,17)"/>
<path d="M0 0 C2.76223278 2.76223278 2.57856291 5.20706617 3 9 C0.9375 7.3125 0.9375 7.3125 -1 5 C-0.75 2.25 -0.75 2.25 0 0 Z " fill="#BD726F" transform="translate(82,108)"/>
<path d="M0 0 C0.33 0 0.66 0 1 0 C1 1.98 1 3.96 1 6 C0.01 6.33 -0.98 6.66 -2 7 C-2.73323796 9.01508358 -2.73323796 9.01508358 -3 11 C-2.25 3.375 -2.25 3.375 0 0 Z " fill="#C0726F" transform="translate(11,60)"/>
<path d="M0 0 C0.99 0.33 1.98 0.66 3 1 C2.01 2.485 2.01 2.485 1 4 C0.01 4 -0.98 4 -2 4 C-2.33 4.99 -2.66 5.98 -3 7 C-3.66 6.67 -4.32 6.34 -5 6 C-3.35 4.02 -1.7 2.04 0 0 Z " fill="#C77B77" transform="translate(101,158)"/>
<path d="M0 0 C0.66 0 1.32 0 2 0 C2.33 3.3 2.66 6.6 3 10 C2.67 9.01 2.34 8.02 2 7 C1.34 7 0.68 7 0 7 C0 4.69 0 2.38 0 0 Z " fill="#C27976" transform="translate(167,148)"/>
<path d="M0 0 C3.35620271 1.38877354 5.07298728 2.91677965 7 6 C7 6.66 7 7.32 7 8 C3.64379729 6.61122646 1.92701272 5.08322035 0 2 C0 1.34 0 0.68 0 0 Z " fill="#C57D79" transform="translate(134,112)"/>
<path d="M0 0 C0.33 1.32 0.66 2.64 1 4 C-0.65 5.32 -2.3 6.64 -4 8 C-4.66 7.67 -5.32 7.34 -6 7 C-4.02 4.69 -2.04 2.38 0 0 Z " fill="#C37A76" transform="translate(105,71)"/>
<path d="M0 0 C0.66 0.66 1.32 1.32 2 2 C1.7578125 4.3828125 1.7578125 4.3828125 1.125 7.125 C0.92132812 8.03507812 0.71765625 8.94515625 0.5078125 9.8828125 C0.34023438 10.58148438 0.17265625 11.28015625 0 12 C-0.33 12 -0.66 12 -1 12 C-1.02712066 10.56260487 -1.04645067 9.12506137 -1.0625 7.6875 C-1.07410156 6.88699219 -1.08570312 6.08648437 -1.09765625 5.26171875 C-1 3 -1 3 0 0 Z " fill="#D48884" transform="translate(21,62)"/>
<path d="M0 0 C0.99 0.33 1.98 0.66 3 1 C2.04882866 2.1725131 1.08882991 3.33787015 0.125 4.5 C-0.40867187 5.1496875 -0.94234375 5.799375 -1.4921875 6.46875 C-1.98976562 6.9740625 -2.48734375 7.479375 -3 8 C-3.66 8 -4.32 8 -5 8 C-5 7.34 -5 6.68 -5 6 C-4.34 6 -3.68 6 -3 6 C-2.67 5.01 -2.34 4.02 -2 3 C-1.34 3 -0.68 3 0 3 C0 2.01 0 1.02 0 0 Z " fill="#C37773" transform="translate(47,24)"/>
<path d="M0 0 C0.66 0.33 1.32 0.66 2 1 C1.67 2.32 1.34 3.64 1 5 C1.99 5.33 2.98 5.66 4 6 C2.02 6.99 2.02 6.99 0 8 C-0.38063221 5.6739143 -0.71269945 3.33944736 -1 1 C-0.67 0.67 -0.34 0.34 0 0 Z " fill="#D68783" transform="translate(112,78)"/>
<path d="M0 0 C0.33 0 0.66 0 1 0 C1.66 3.3 2.32 6.6 3 10 C2.34 9.67 1.68 9.34 1 9 C1 8.34 1 7.68 1 7 C0.34 7 -0.32 7 -1 7 C-0.67 4.69 -0.34 2.38 0 0 Z " fill="#CC8984" transform="translate(19,106)"/>
<path d="M0 0 C-1.25 1.5 -1.25 1.5 -3 3 C-4.32 3 -5.64 3 -7 3 C-6.67 2.01 -6.34 1.02 -6 0 C-3.50907189 -1.24546405 -2.58919267 -0.7767578 0 0 Z " fill="#BE726F" transform="translate(62,7)"/>
<path d="M0 0 C0.33 0 0.66 0 1 0 C2.12880057 3.31114834 3.21302675 6.58978257 4 10 C2.68 9.34 1.36 8.68 0 8 C0 5.36 0 2.72 0 0 Z " fill="#C57773" transform="translate(7,108)"/>
<path d="M0 0 C4.75 0.875 4.75 0.875 7 2 C6.67 2.99 6.34 3.98 6 5 C3.5625 4.1875 3.5625 4.1875 1 3 C0.67 2.01 0.34 1.02 0 0 Z " fill="#D28A86" transform="translate(117,101)"/>
<path d="M0 0 C0.66 1.32 1.32 2.64 2 4 C0.625 6 0.625 6 -1 8 C-1.66 8 -2.32 8 -3 8 C-2.690625 7.236875 -2.38125 6.47375 -2.0625 5.6875 C-1.32106407 3.81210323 -0.63771783 1.91315348 0 0 Z " fill="#D18986" transform="translate(111,60)"/>
</svg>
